<svg xmlns="http://www.w3.org/2000/svg" width="29.243" height="29.243" viewBox="0 0 29.243 29.243"><path d="M29.283,9.281A14.521,14.521,0,0,0,23.96,3.959,14.322,14.322,0,0,0,16.621,2a14.332,14.332,0,0,0-7.34,1.959A14.517,14.517,0,0,0,3.959,9.281,14.328,14.328,0,0,0,2,16.621a14.313,14.313,0,0,0,1.959,7.34,14.51,14.51,0,0,0,5.324,5.322,14.322,14.322,0,0,0,7.338,1.959,14.332,14.332,0,0,0,7.34-1.959,14.521,14.521,0,0,0,5.324-5.322,14.326,14.326,0,0,0,1.958-7.34A14.313,14.313,0,0,0,29.283,9.281ZM16.621,4.427A11.864,11.864,0,0,1,24.4,7.233a14.548,14.548,0,0,1-5.995,4.24,31.2,31.2,0,0,0-4.768-6.638A11.28,11.28,0,0,1,16.621,4.427ZM7.132,9.018A11.867,11.867,0,0,1,11.1,5.772a29.782,29.782,0,0,1,4.884,6.58,32.1,32.1,0,0,1-9.271,1.316q-1.257,0-1.9-.058A12.5,12.5,0,0,1,7.132,9.018Zm-2.7,7.6c0-.079,0-.175.015-.292s.015-.213.015-.292c.371.02.937.029,1.7.029a35.539,35.539,0,0,0,10.877-1.608q.41.818.848,1.842a14.527,14.527,0,0,0-5.938,3.129A16.738,16.738,0,0,0,7.5,24.663,11.791,11.791,0,0,1,4.427,16.621ZM16.621,28.816a11.836,11.836,0,0,1-7.458-2.572,16.59,16.59,0,0,1,4.052-4.973,12.469,12.469,0,0,1,5.425-2.954A43.047,43.047,0,0,1,20.92,28,11.94,11.94,0,0,1,16.621,28.816Zm10.352-5.79A12.21,12.21,0,0,1,23.2,26.858a42.087,42.087,0,0,0-2.016-8.891q2.044-.145,3.655-.146,1.752,0,3.888.146A11.84,11.84,0,0,1,26.973,23.025ZM25.16,15.715q-2.544,0-4.708.2-.557-1.432-.994-2.369A14.459,14.459,0,0,0,25.89,8.726,11.738,11.738,0,0,1,28.756,15.8Q26.975,15.715,25.16,15.715Z" transform="translate(-2 -2)"/></svg>