<svg xmlns="http://www.w3.org/2000/svg" width="1920" height="287" viewBox="0 0 1920 287"><defs><style>.a{fill:#fff;}.b{fill:#666;}.b,.c{font-size:19px;font-family:Montserrat-Regular, Montserrat;}.c{fill:#333;}.d{fill:#181818;font-size:53px;font-family:Montserrat-Bold, Montserrat;font-weight:700;}.e{fill-rule:evenodd;}</style></defs><g transform="translate(0 -3983)"><rect class="a" width="1920" height="287" transform="translate(0 3983)"/><text class="b" transform="translate(325 4194)"><tspan x="0" y="0">© 2021 Chintan Thakur. All rights reserved.</tspan></text><g transform="translate(195.373 4041.363)"><g transform="translate(129.312 7.607)"><text class="c" transform="translate(2.811 82.095)"><tspan x="0" y="0">UX Designer, Developer &amp; Consultant</tspan></text><text class="d" transform="translate(0 51)"><tspan x="0" y="0">Chintan Thakur</tspan></text></g></g><path d="M29.283,9.281A14.521,14.521,0,0,0,23.96,3.959,14.322,14.322,0,0,0,16.621,2a14.332,14.332,0,0,0-7.34,1.959A14.517,14.517,0,0,0,3.959,9.281,14.328,14.328,0,0,0,2,16.621a14.313,14.313,0,0,0,1.959,7.34,14.51,14.51,0,0,0,5.324,5.322,14.322,14.322,0,0,0,7.338,1.959,14.332,14.332,0,0,0,7.34-1.959,14.521,14.521,0,0,0,5.324-5.322,14.326,14.326,0,0,0,1.958-7.34A14.313,14.313,0,0,0,29.283,9.281ZM16.621,4.427A11.864,11.864,0,0,1,24.4,7.233a14.548,14.548,0,0,1-5.995,4.24,31.2,31.2,0,0,0-4.768-6.638A11.28,11.28,0,0,1,16.621,4.427ZM7.132,9.018A11.867,11.867,0,0,1,11.1,5.772a29.782,29.782,0,0,1,4.884,6.58,32.1,32.1,0,0,1-9.271,1.316q-1.257,0-1.9-.058A12.5,12.5,0,0,1,7.132,9.018Zm-2.7,7.6c0-.079,0-.175.015-.292s.015-.213.015-.292c.371.02.937.029,1.7.029a35.539,35.539,0,0,0,10.877-1.608q.41.818.848,1.842a14.527,14.527,0,0,0-5.938,3.129A16.738,16.738,0,0,0,7.5,24.663,11.791,11.791,0,0,1,4.427,16.621ZM16.621,28.816a11.836,11.836,0,0,1-7.458-2.572,16.59,16.59,0,0,1,4.052-4.973,12.469,12.469,0,0,1,5.425-2.954A43.047,43.047,0,0,1,20.92,28,11.94,11.94,0,0,1,16.621,28.816Zm10.352-5.79A12.21,12.21,0,0,1,23.2,26.858a42.087,42.087,0,0,0-2.016-8.891q2.044-.145,3.655-.146,1.752,0,3.888.146A11.84,11.84,0,0,1,26.973,23.025ZM25.16,15.715q-2.544,0-4.708.2-.557-1.432-.994-2.369A14.459,14.459,0,0,0,25.89,8.726,11.738,11.738,0,0,1,28.756,15.8Q26.975,15.715,25.16,15.715Z" transform="translate(1533.861 4092.271)"/><path class="e" d="M16.635,2a14.585,14.585,0,0,0-4.61,28.422c.73.132.993-.317.993-.7,0-.347-.012-1.265-.016-2.48-4.057.88-4.914-1.956-4.914-1.956A3.853,3.853,0,0,0,6.469,23.15c-1.323-.905.1-.885.1-.885a3.054,3.054,0,0,1,2.233,1.5,3.105,3.105,0,0,0,4.243,1.212,3.126,3.126,0,0,1,.928-1.95c-3.237-.367-6.641-1.619-6.641-7.208a5.651,5.651,0,0,1,1.5-3.911,5.246,5.246,0,0,1,.145-3.86s1.224-.393,4.009,1.493a13.8,13.8,0,0,1,7.3,0C23.07,7.656,24.292,8.05,24.292,8.05a5.222,5.222,0,0,1,.145,3.86,5.615,5.615,0,0,1,1.5,3.911c0,5.6-3.407,6.835-6.656,7.2a3.494,3.494,0,0,1,.987,2.7c0,1.95-.018,3.524-.018,4,0,.39.26.844,1,.7A14.585,14.585,0,0,0,16.635,2Z" transform="translate(1588.984 4092.271)"/><g transform="translate(1646.212 4094.271)"><path d="M14.135,7.377a6.76,6.76,0,1,0,6.759,6.759,6.759,6.759,0,0,0-6.759-6.759Zm0,11.152a4.391,4.391,0,1,1,4.389-4.391,4.392,4.392,0,0,1-4.389,4.391Z" transform="translate(-0.981 -0.985)"/><circle cx="1.576" cy="1.576" r="1.576" transform="translate(18.607 4.568)"/><path d="M28.635,7.546A6.733,6.733,0,0,0,24.785,3.7a9.659,9.659,0,0,0-3.2-.614c-1.408-.061-1.854-.079-5.425-.079s-4.028,0-5.425.079A9.583,9.583,0,0,0,7.546,3.7,6.725,6.725,0,0,0,3.7,7.546a9.628,9.628,0,0,0-.613,3.2C3.021,12.149,3,12.6,3,16.167s0,4.025.082,5.425a9.643,9.643,0,0,0,.613,3.2,6.74,6.74,0,0,0,3.851,3.848,9.627,9.627,0,0,0,3.195.658c1.408.061,1.854.08,5.425.08s4.028,0,5.425-.08a9.672,9.672,0,0,0,3.2-.613,6.744,6.744,0,0,0,3.85-3.85,9.628,9.628,0,0,0,.613-3.2c.063-1.407.082-1.853.082-5.425s0-4.025-.082-5.425A9.622,9.622,0,0,0,28.635,7.546ZM26.854,21.483a7.374,7.374,0,0,1-.455,2.468,4.367,4.367,0,0,1-2.5,2.5,7.289,7.289,0,0,1-2.442.455c-1.389.064-1.781.08-5.343.08s-3.929,0-5.344-.08a7.251,7.251,0,0,1-2.44-.455,4.364,4.364,0,0,1-2.513-2.5,7.429,7.429,0,0,1-.455-2.44c-.063-1.389-.077-1.781-.077-5.343s0-3.927.077-5.344a7.366,7.366,0,0,1,.455-2.467,4.366,4.366,0,0,1,2.513-2.5,7.324,7.324,0,0,1,2.44-.455c1.39-.063,1.781-.08,5.344-.08s3.929,0,5.343.08a7.253,7.253,0,0,1,2.442.455,4.374,4.374,0,0,1,2.5,2.5,7.429,7.429,0,0,1,.455,2.44c.063,1.39.079,1.781.079,5.344s0,3.945-.063,5.343h-.016Z" transform="translate(-3.002 -3.005)"/></g><g transform="translate(1698.009 4094.271)"><circle cx="3.199" cy="3.199" r="3.199" transform="translate(0 0)"/><path d="M12.075,8.994V26.742h5.511V17.965c0-2.316.436-4.559,3.307-4.559,2.832,0,2.867,2.648,2.867,4.705v8.632h5.514V17.011c0-4.781-1.029-8.456-6.618-8.456a5.8,5.8,0,0,0-5.217,2.866h-.075V8.994Zm-8.98,0h5.52V26.742H3.095Z" transform="translate(-2.656 -0.171)"/></g></g></svg>