<svg xmlns="http://www.w3.org/2000/svg" width="29.167" height="28.447" viewBox="0 0 29.167 28.447"><defs><style>.a{fill-rule:evenodd;}</style></defs><path class="a" d="M16.635,2a14.585,14.585,0,0,0-4.61,28.422c.73.132.993-.317.993-.7,0-.347-.012-1.265-.016-2.48-4.057.88-4.914-1.956-4.914-1.956A3.853,3.853,0,0,0,6.469,23.15c-1.323-.905.1-.885.1-.885a3.054,3.054,0,0,1,2.233,1.5,3.105,3.105,0,0,0,4.243,1.212,3.126,3.126,0,0,1,.928-1.95c-3.237-.367-6.641-1.619-6.641-7.208a5.651,5.651,0,0,1,1.5-3.911,5.246,5.246,0,0,1,.145-3.86s1.224-.393,4.009,1.493a13.8,13.8,0,0,1,7.3,0C23.07,7.656,24.292,8.05,24.292,8.05a5.222,5.222,0,0,1,.145,3.86,5.615,5.615,0,0,1,1.5,3.911c0,5.6-3.407,6.835-6.656,7.2a3.494,3.494,0,0,1,.987,2.7c0,1.95-.018,3.524-.018,4,0,.39.26.844,1,.7A14.585,14.585,0,0,0,16.635,2Z" transform="translate(-2.052 -2)"/></svg>