<svg xmlns="http://www.w3.org/2000/svg" width="26.33" height="26.371" viewBox="0 0 26.33 26.371"><path d="M14.135,7.377a6.76,6.76,0,1,0,6.759,6.759,6.759,6.759,0,0,0-6.759-6.759Zm0,11.152a4.391,4.391,0,1,1,4.389-4.391,4.392,4.392,0,0,1-4.389,4.391Z" transform="translate(-0.981 -0.985)"/><circle cx="1.576" cy="1.576" r="1.576" transform="translate(18.607 4.568)"/><path d="M28.635,7.546A6.733,6.733,0,0,0,24.785,3.7a9.659,9.659,0,0,0-3.2-.614c-1.408-.061-1.854-.079-5.425-.079s-4.028,0-5.425.079A9.583,9.583,0,0,0,7.546,3.7,6.725,6.725,0,0,0,3.7,7.546a9.628,9.628,0,0,0-.613,3.2C3.021,12.149,3,12.6,3,16.167s0,4.025.082,5.425a9.643,9.643,0,0,0,.613,3.2,6.74,6.74,0,0,0,3.851,3.848,9.627,9.627,0,0,0,3.195.658c1.408.061,1.854.08,5.425.08s4.028,0,5.425-.08a9.672,9.672,0,0,0,3.2-.613,6.744,6.744,0,0,0,3.85-3.85,9.628,9.628,0,0,0,.613-3.2c.063-1.407.082-1.853.082-5.425s0-4.025-.082-5.425A9.622,9.622,0,0,0,28.635,7.546ZM26.854,21.483a7.374,7.374,0,0,1-.455,2.468,4.367,4.367,0,0,1-2.5,2.5,7.289,7.289,0,0,1-2.442.455c-1.389.064-1.781.08-5.343.08s-3.929,0-5.344-.08a7.251,7.251,0,0,1-2.44-.455,4.364,4.364,0,0,1-2.513-2.5,7.429,7.429,0,0,1-.455-2.44c-.063-1.389-.077-1.781-.077-5.343s0-3.927.077-5.344a7.366,7.366,0,0,1,.455-2.467,4.366,4.366,0,0,1,2.513-2.5,7.324,7.324,0,0,1,2.44-.455c1.39-.063,1.781-.08,5.344-.08s3.929,0,5.343.08a7.253,7.253,0,0,1,2.442.455,4.374,4.374,0,0,1,2.5,2.5,7.429,7.429,0,0,1,.455,2.44c.063,1.39.079,1.781.079,5.344s0,3.945-.063,5.343h-.016Z" transform="translate(-3.002 -3.005)"/></svg>