<svg xmlns="http://www.w3.org/2000/svg" xmlns:xlink="http://www.w3.org/1999/xlink" width="36" height="36" viewBox="0 0 36 36"><defs><style>.a{fill:#e94b63;}.b{clip-path:url(#a);}</style><clipPath id="a"><rect class="a" width="36" height="36" transform="translate(0 0.457)"/></clipPath></defs><g class="b" transform="translate(0 -0.457)"><g transform="translate(0 0.161)"><path class="a" d="M36,21.891V35.2H28.284V22.782c0-3.12-1.116-5.248-3.909-5.248a4.222,4.222,0,0,0-3.959,2.823,5.28,5.28,0,0,0-.256,1.881V35.2H12.442s.1-21.032,0-23.211h7.718v3.29c-.016.025-.036.051-.051.075h.051v-.075a7.663,7.663,0,0,1,6.955-3.835C32.193,11.444,36,14.761,36,21.891ZM4.368.8a4.022,4.022,0,1,0-.1,8.022h.052A4.024,4.024,0,1,0,4.368.8ZM.458,35.2H8.174V11.989H.458Z" transform="translate(0 -0.8)"/></g></g></svg>