<svg xmlns="http://www.w3.org/2000/svg" xmlns:xlink="http://www.w3.org/1999/xlink" width="36" height="36" viewBox="0 0 36 36"><defs><style>.a{fill:#e95841;}.b{clip-path:url(#a);}</style><clipPath id="a"><rect class="a" width="36" height="36"/></clipPath></defs><g class="b"><g transform="translate(0 6.8)"><path class="a" d="M32.511,9.97H23.49V7.729h9.021V9.97h0ZM17.485,19.158a5.923,5.923,0,0,1,.873,3.281,6.535,6.535,0,0,1-1,3.574,6.2,6.2,0,0,1-1.585,1.759A6.123,6.123,0,0,1,13.251,28.9a15.629,15.629,0,0,1-3.163.3H0V6.8H10.818c2.727.044,4.66.834,5.8,2.386a5.7,5.7,0,0,1,1.024,3.421,4.986,4.986,0,0,1-1.035,3.3A5.281,5.281,0,0,1,14.9,17.179,4.974,4.974,0,0,1,17.485,19.158ZM5.166,15.631h4.74a4.491,4.491,0,0,0,2.368-.555,2.117,2.117,0,0,0,.908-1.969,2,2,0,0,0-1.2-2.066,8.462,8.462,0,0,0-2.644-.35H5.166Zm8.473,6.488a2.4,2.4,0,0,0-1.425-2.4,5.613,5.613,0,0,0-2.24-.38H5.166v5.969H9.9a5.259,5.259,0,0,0,2.268-.393A2.824,2.824,0,0,0,13.639,22.119Zm22.219-3.644A21.07,21.07,0,0,1,36,21.661H24.313a3.835,3.835,0,0,0,1.677,3.385,4.224,4.224,0,0,0,2.313.6,3.258,3.258,0,0,0,3.19-1.837h4.282a5.215,5.215,0,0,1-1.554,2.9,7.794,7.794,0,0,1-6.034,2.343,8.757,8.757,0,0,1-5.652-1.975q-2.443-1.979-2.446-6.428a8.688,8.688,0,0,1,2.208-6.4,7.738,7.738,0,0,1,5.74-2.225,9.148,9.148,0,0,1,3.773.75,6.5,6.5,0,0,1,2.77,2.376A7.92,7.92,0,0,1,35.857,18.475Zm-4.215.418a3.5,3.5,0,0,0-1.121-2.536,3.657,3.657,0,0,0-2.486-.869,3.326,3.326,0,0,0-2.5.92,4.324,4.324,0,0,0-1.118,2.484h7.229Z" transform="translate(0 -6.8)"/></g></g></svg>