<svg xmlns="http://www.w3.org/2000/svg" xmlns:xlink="http://www.w3.org/1999/xlink" width="36" height="36" viewBox="0 0 36 36"><defs><style>.a{fill:#e94b63;}.b{clip-path:url(#a);}</style><clipPath id="a"><rect class="a" width="36" height="36" transform="translate(0 -0.272)"/></clipPath></defs><g class="b" transform="translate(0 0.271)"><g transform="translate(0 -0.396)"><path class="a" d="M27.592,8.085a7.664,7.664,0,0,0,1.969-3.832A17.649,17.649,0,0,0,11.671,1.2a45.963,45.963,0,0,1,8.3,11.563A18.822,18.822,0,0,0,27.592,8.085Zm0,0" transform="translate(0)"/><path class="a" d="M29.162,9.494a20.681,20.681,0,0,1-8.247,5.185c.427.937.82,1.893,1.189,2.861a25.96,25.96,0,0,1,5.459-.6,25.648,25.648,0,0,1,8.419,1.414c0-.121.018-.238.018-.359A17.839,17.839,0,0,0,31.3,5.946,10.459,10.459,0,0,1,29.162,9.494Zm0,0" transform="translate(0)"/><path class="a" d="M.411,14.211a41.775,41.775,0,0,0,7.112.625,38.318,38.318,0,0,0,10.419-1.427A43.649,43.649,0,0,0,9.607,2.131a18.307,18.307,0,0,0-9.2,12.081Zm0,0" transform="translate(0)"/><path class="a" d="M35.8,20.531a23.432,23.432,0,0,0-8.238-1.476,23.994,23.994,0,0,0-4.75.48A52.162,52.162,0,0,1,25.428,34.4,18.066,18.066,0,0,0,35.8,20.531Zm0,0" transform="translate(0)"/><path class="a" d="M0,18A18.17,18.17,0,0,0,6.643,31.874a15.247,15.247,0,0,1,3.736-7.853,21.189,21.189,0,0,1,9.674-5.962c-.357-.922-.748-1.825-1.16-2.716a40.209,40.209,0,0,1-11.369,1.6,43.907,43.907,0,0,1-7.437-.651C.033,16.856,0,17.424,0,18Zm0,0" transform="translate(0)"/><path class="a" d="M11.953,25.425A12.742,12.742,0,0,0,8.61,33.273a17.813,17.813,0,0,0,14.712,1.939,50.088,50.088,0,0,0-2.565-15.168A19.086,19.086,0,0,0,11.953,25.425Zm0,0" transform="translate(0)"/></g></g></svg>